<svg width="21" height="18" viewBox="0 0 21 18" fill="none" xmlns="http://www.w3.org/2000/svg">
<rect width="21" height="18" rx="2" fill="#09090B"/>
<path d="M5.14205 14.1818H2V4H5.28125C6.26894 4 7.11411 4.20384 7.81676 4.61151C8.51941 5.01586 9.058 5.59754 9.43253 6.35653C9.80706 7.11222 9.99432 8.01705 9.99432 9.07102C9.99432 10.1316 9.8054 11.0447 9.42756 11.8104C9.04972 12.5727 8.49953 13.1593 7.77699 13.5703C7.05445 13.978 6.17614 14.1818 5.14205 14.1818ZM3.23295 13.0881H5.0625C5.90436 13.0881 6.60204 12.9257 7.15554 12.6009C7.70904 12.276 8.12169 11.8137 8.39347 11.2138C8.66525 10.6139 8.80114 9.89962 8.80114 9.07102C8.80114 8.24905 8.6669 7.54143 8.39844 6.94815C8.12997 6.35156 7.72893 5.89418 7.19531 5.57599C6.6617 5.2545 5.99716 5.09375 5.2017 5.09375H3.23295V13.0881Z" fill="white"/>
<path d="M12.0625 14.1818V4H15.5028C16.2983 4 16.9512 4.13589 17.4616 4.40767C17.9721 4.67614 18.3499 5.04569 18.5952 5.51634C18.8404 5.98698 18.9631 6.52225 18.9631 7.12216C18.9631 7.72206 18.8404 8.25402 18.5952 8.71804C18.3499 9.18206 17.9737 9.54664 17.4666 9.81179C16.9595 10.0736 16.3116 10.2045 15.5227 10.2045H12.7386V9.09091H15.483C16.0265 9.09091 16.464 9.01136 16.7955 8.85227C17.1302 8.69318 17.3722 8.4678 17.5213 8.17614C17.6738 7.88116 17.75 7.52983 17.75 7.12216C17.75 6.71449 17.6738 6.35819 17.5213 6.05327C17.3688 5.74834 17.1252 5.51302 16.7905 5.3473C16.4557 5.17827 16.0133 5.09375 15.4631 5.09375H13.2955V14.1818H12.0625ZM16.8551 9.60795L19.3608 14.1818H17.929L15.4631 9.60795H16.8551Z" fill="white"/>
</svg>
